<svg id="svg" xmlns="http://www.w3.org/2000/svg" xmlns:xlink="http://www.w3.org/1999/xlink" width="400" height="652.6315789473684" viewBox="0, 0, 400,652.6315789473684"><g id="svgg"><path id="path0" d="M199.600 72.811 C 198.610 73.009,197.237 73.271,196.549 73.394 C 195.861 73.517,194.859 74.019,194.322 74.509 C 191.990 76.640,188.388 77.930,181.745 79.015 C 178.750 79.504,178.349 79.685,176.737 81.273 C 173.931 84.037,172.952 84.737,169.273 86.607 C 165.857 88.344,164.417 89.778,162.605 93.245 C 162.388 93.660,162.074 94.000,161.907 94.000 C 161.292 94.000,158.154 97.442,157.649 98.671 C 157.362 99.370,156.883 100.036,156.585 100.150 C 156.287 100.265,155.772 101.274,155.439 102.393 C 154.792 104.572,153.417 106.800,152.719 106.800 C 151.755 106.800,150.442 108.877,150.007 111.087 C 149.757 112.359,149.461 113.670,149.348 114.000 C 149.236 114.330,148.894 116.848,148.588 119.595 C 148.283 122.342,147.845 124.652,147.616 124.728 C 147.387 124.804,147.200 125.219,147.200 125.649 C 147.200 126.080,146.840 127.138,146.400 128.000 C 145.051 130.644,145.291 137.265,147.086 146.900 C 147.199 147.505,147.423 148.000,147.584 148.000 C 147.746 148.000,148.191 150.295,148.575 153.100 C 149.574 160.412,150.511 163.304,152.354 164.764 C 153.860 165.956,155.251 168.509,155.980 171.416 C 156.302 172.698,156.758 173.267,158.193 174.174 C 159.187 174.802,160.000 175.458,160.000 175.631 C 160.000 175.804,160.315 176.051,160.700 176.178 C 161.085 176.306,162.083 177.484,162.919 178.796 C 164.048 180.570,164.914 181.419,166.296 182.108 C 167.649 182.783,168.384 183.492,169.002 184.718 C 170.062 186.824,170.842 187.427,173.569 188.245 C 174.761 188.604,175.931 189.059,176.169 189.258 C 178.923 191.563,181.766 193.600,182.226 193.600 C 182.542 193.600,182.800 193.758,182.800 193.950 C 182.800 194.142,183.385 194.424,184.100 194.576 C 194.729 196.834,231.600 196.390,231.600 194.003 C 231.600 193.829,232.035 193.578,232.566 193.444 C 233.098 193.311,234.482 192.391,235.642 191.401 C 236.803 190.410,238.078 189.600,238.476 189.600 C 238.874 189.600,239.200 189.434,239.200 189.232 C 239.200 189.029,239.785 188.737,240.500 188.582 C 242.910 188.060,245.293 186.687,246.068 185.375 C 246.485 184.667,247.521 183.629,248.369 183.068 C 252.714 180.193,258.069 174.061,259.014 170.879 C 259.469 169.347,260.004 168.540,261.112 167.715 C 261.930 167.107,262.895 166.287,263.255 165.895 C 263.871 165.223,265.602 159.030,265.601 157.500 C 265.600 157.115,265.748 156.800,265.929 156.800 C 266.110 156.800,266.462 155.585,266.711 154.100 C 266.960 152.615,267.532 149.789,267.982 147.820 C 268.890 143.847,269.237 122.997,268.409 122.169 C 267.852 121.612,266.400 117.253,266.400 116.137 C 266.400 115.622,266.235 115.200,266.034 115.200 C 265.833 115.200,265.538 113.806,265.378 112.102 C 264.999 108.053,264.118 106.068,262.072 104.650 C 260.511 103.568,257.200 98.053,257.200 96.535 C 257.200 96.241,257.020 96.000,256.800 96.000 C 256.580 96.000,256.400 95.750,256.400 95.443 C 256.400 95.137,255.945 94.772,255.388 94.633 C 254.832 94.493,253.989 93.934,253.516 93.389 C 253.043 92.845,252.458 92.400,252.217 92.400 C 251.644 92.400,249.600 89.239,249.600 88.352 C 249.600 87.900,249.154 87.567,248.300 87.382 C 245.969 86.878,242.245 84.733,240.073 82.645 C 238.903 81.520,237.729 80.403,237.464 80.163 C 236.557 79.339,235.397 78.907,233.400 78.649 C 228.356 77.996,222.070 76.070,220.781 74.781 C 218.722 72.722,205.986 71.538,199.600 72.811 M198.600 267.831 C 197.940 267.920,195.150 268.185,192.400 268.419 C 186.084 268.959,184.176 269.606,182.589 271.749 C 181.249 273.558,179.090 274.568,175.013 275.292 C 173.701 275.525,172.387 275.956,172.094 276.249 C 171.801 276.542,171.254 277.011,170.878 277.291 C 170.503 277.571,169.853 278.454,169.433 279.252 C 168.665 280.714,166.996 282.000,165.869 282.000 C 165.060 282.000,162.800 283.927,162.800 284.617 C 162.800 285.788,161.814 287.220,160.275 288.286 C 157.497 290.208,156.495 291.465,156.037 293.602 C 155.396 296.590,153.416 300.254,152.107 300.875 C 150.284 301.740,149.581 303.852,148.695 311.128 C 148.249 314.797,147.754 317.890,147.595 318.000 C 146.019 319.094,145.134 331.951,146.364 335.873 C 146.824 337.337,147.200 338.774,147.200 339.067 C 147.200 339.360,147.359 339.600,147.553 339.600 C 147.748 339.600,148.031 340.815,148.184 342.300 C 149.107 351.302,150.270 356.800,151.251 356.800 C 152.002 356.800,154.511 360.073,155.447 362.275 C 156.037 363.664,156.655 364.800,156.820 364.800 C 156.985 364.800,157.334 365.655,157.594 366.700 C 158.037 368.474,158.221 368.672,160.368 369.695 C 162.422 370.673,162.793 371.045,163.834 373.173 C 164.551 374.640,165.258 375.565,165.671 375.578 C 166.041 375.590,166.581 375.831,166.871 376.114 C 167.162 376.396,168.210 377.103,169.200 377.684 C 171.045 378.768,174.000 381.435,174.000 382.016 C 174.000 382.598,178.163 384.265,180.914 384.784 C 182.391 385.063,183.600 385.450,183.600 385.645 C 183.600 385.840,183.933 386.000,184.340 386.000 C 185.466 386.000,188.870 387.937,190.034 389.239 C 191.562 390.949,193.763 391.200,207.155 391.198 C 218.209 391.196,223.422 390.856,223.971 390.104 C 224.449 389.448,228.655 386.799,229.900 386.370 C 230.615 386.123,231.200 385.770,231.200 385.585 C 231.200 385.400,232.055 385.121,233.100 384.965 C 236.952 384.388,240.493 382.854,242.314 380.972 C 244.524 378.687,245.556 378.030,247.859 377.443 C 249.556 377.010,249.856 376.749,250.918 374.783 C 252.340 372.151,253.432 371.089,255.786 370.047 C 257.132 369.452,257.631 368.981,257.817 368.129 C 258.892 363.212,260.226 360.511,262.138 359.382 C 263.707 358.455,265.067 355.256,265.406 351.700 C 265.557 350.105,265.818 348.800,265.986 348.800 C 266.154 348.800,266.523 347.675,266.806 346.300 C 267.090 344.925,267.654 343.132,268.061 342.316 C 270.041 338.339,268.329 309.468,266.002 307.600 C 265.865 307.490,265.445 305.776,265.069 303.791 C 263.930 297.778,263.807 297.498,261.902 296.600 C 260.448 295.914,260.061 295.453,259.202 293.374 C 257.940 290.319,257.324 289.486,255.707 288.653 C 254.257 287.906,252.000 285.830,252.000 285.244 C 252.000 284.465,249.787 282.266,248.362 281.627 C 246.899 280.972,245.350 279.419,244.445 277.700 C 244.185 277.205,243.717 276.800,243.406 276.800 C 243.094 276.800,242.696 276.556,242.520 276.257 C 242.344 275.958,241.210 275.483,240.000 275.202 C 237.073 274.522,233.217 272.497,232.810 271.427 C 232.072 269.485,230.161 268.787,224.400 268.354 C 219.483 267.984,200.348 267.597,198.600 267.831 M201.200 458.361 C 201.200 458.559,200.132 458.845,198.826 458.997 C 197.521 459.148,195.856 459.609,195.126 460.021 C 194.397 460.432,192.810 461.271,191.600 461.884 C 190.390 462.498,189.310 463.105,189.200 463.234 C 188.901 463.585,184.108 464.714,181.600 465.024 C 178.915 465.357,176.907 466.231,176.599 467.203 C 176.330 468.049,174.546 469.458,172.002 470.830 C 171.014 471.363,170.024 471.942,169.802 472.115 C 169.581 472.289,168.410 473.009,167.200 473.715 C 165.901 474.474,164.749 475.503,164.387 476.227 C 163.534 477.932,162.394 479.279,161.100 480.111 C 160.495 480.500,160.000 481.080,160.000 481.400 C 160.000 481.720,159.557 482.272,159.016 482.627 C 158.474 482.981,157.929 483.594,157.804 483.988 C 157.679 484.382,157.230 485.104,156.807 485.592 C 156.384 486.079,155.734 487.406,155.363 488.539 C 154.492 491.197,153.459 492.648,152.216 492.960 C 150.557 493.377,149.603 496.736,148.581 505.763 C 148.285 508.383,147.898 510.633,147.721 510.763 C 145.315 512.537,145.219 532.375,147.609 534.000 C 147.771 534.110,148.203 536.360,148.570 539.000 C 149.598 546.403,150.462 548.897,152.777 551.140 C 154.390 552.703,154.858 553.508,155.598 555.994 C 156.540 559.156,156.724 559.385,159.702 561.103 C 161.031 561.870,161.836 562.695,162.378 563.844 C 163.121 565.423,165.246 567.600,166.044 567.600 C 166.629 567.600,168.705 569.856,169.455 571.307 C 170.360 573.059,170.951 573.451,174.142 574.424 C 176.310 575.084,177.310 575.673,178.913 577.235 C 181.268 579.529,183.144 580.228,188.700 580.879 C 190.735 581.117,192.400 581.467,192.400 581.656 C 192.400 581.845,199.060 582.000,207.200 582.000 C 215.340 582.000,222.000 581.846,222.000 581.658 C 222.000 581.469,223.433 581.196,225.184 581.050 C 230.198 580.631,233.358 579.480,235.575 577.263 C 237.011 575.827,237.955 575.262,239.624 574.841 C 242.913 574.010,244.955 572.923,245.748 571.580 C 246.142 570.914,247.169 569.902,248.032 569.332 C 248.894 568.761,249.600 568.159,249.600 567.995 C 249.600 567.831,250.590 566.949,251.800 566.035 C 253.010 565.122,254.000 564.122,254.000 563.813 C 254.000 563.504,254.720 562.745,255.599 562.126 C 257.186 561.008,258.041 559.595,259.397 555.853 C 259.950 554.327,260.478 553.678,261.839 552.853 C 263.728 551.708,263.907 551.338,265.053 546.200 C 265.446 544.440,265.871 542.910,265.998 542.800 C 266.126 542.690,266.439 541.430,266.695 540.000 C 266.950 538.570,267.528 535.708,267.980 533.639 C 269.317 527.510,269.209 509.412,267.819 506.672 C 267.281 505.612,266.721 503.947,266.575 502.972 C 266.429 501.998,266.168 501.200,265.996 501.200 C 265.824 501.200,265.554 499.715,265.395 497.900 C 265.049 493.940,264.513 492.762,261.978 490.400 C 260.261 488.799,257.200 483.682,257.200 482.411 C 257.200 482.185,257.020 482.000,256.800 482.000 C 256.580 482.000,256.398 481.685,256.396 481.300 C 256.394 480.888,255.776 480.305,254.896 479.883 C 254.073 479.488,252.986 478.948,252.480 478.683 C 251.974 478.417,251.074 477.183,250.480 475.940 C 249.515 473.920,249.222 473.632,247.730 473.241 C 246.812 473.001,245.811 472.554,245.505 472.248 C 245.200 471.943,244.151 471.292,243.175 470.802 C 241.181 469.802,239.200 468.094,239.200 467.374 C 239.200 466.532,235.105 464.881,231.430 464.241 C 229.466 463.899,227.756 463.452,227.629 463.247 C 227.502 463.041,226.679 462.740,225.799 462.576 C 224.094 462.260,222.090 461.411,219.237 459.797 C 218.267 459.249,217.052 458.800,216.537 458.800 C 216.022 458.800,215.600 458.620,215.600 458.400 C 215.600 458.148,212.933 458.000,208.400 458.000 C 204.389 458.000,201.200 458.160,201.200 458.361 " stroke="none" fill="#858585" fill-rule="evenodd"></path></g></svg>